<svg xmlns="http://www.w3.org/2000/svg" xmlns:xlink="http://www.w3.org/1999/xlink" width="790" height="407.36"><rect width="790" height="407.36" rx="5" ry="5" class="a"/><svg y="0%" x="0%"><circle cx="20" cy="20" r="6" fill="#ff5f58"/><circle cx="40" cy="20" r="6" fill="#ffbd2e"/><circle cx="60" cy="20" r="6" fill="#18c132"/></svg><svg height="347.36" viewBox="0 0 75 34.736" width="750" x="15" xmlns="http://www.w3.org/2000/svg" xmlns:xlink="http://www.w3.org/1999/xlink" y="50"><style>@keyframes l{0%{transform:translateX(0)}.1%{transform:translateX(-75px)}7.7%{transform:translateX(-150px)}8.6%{transform:translateX(-225px)}9.7%{transform:translateX(-300px)}10.6%{transform:translateX(-375px)}11.9%{transform:translateX(-450px)}13.2%{transform:translateX(-525px)}15.3%{transform:translateX(-600px)}17%{transform:translateX(-675px)}17.8%{transform:translateX(-750px)}19.2%{transform:translateX(-825px)}21.1%{transform:translateX(-1050px)}30.4%{transform:translateX(-1125px)}31.5%{transform:translateX(-1200px)}32.3%{transform:translateX(-1275px)}33.3%{transform:translateX(-1350px)}33.9%{transform:translateX(-1425px)}34.9%{transform:translateX(-1500px)}36.2%{transform:translateX(-1575px)}37.7%{transform:translateX(-1725px)}45.4%{transform:translateX(-1800px)}48.5%{transform:translateX(-1950px)}54.9%{transform:translateX(-2025px)}55.6%{transform:translateX(-2100px)}56.3%{transform:translateX(-2175px)}57.4%{transform:translateX(-2250px)}58.8%{transform:translateX(-2325px)}60.4%{transform:translateX(-2400px)}61.8%{transform:translateX(-2475px)}62.7%{transform:translateX(-2550px)}64.4%{transform:translateX(-2625px)}64.5%{transform:translateX(-2700px)}71%{transform:translateX(-2775px)}71.9%{transform:translateX(-2850px)}74.6%{transform:translateX(-2925px)}77.2%{transform:translateX(-3075px)}82.3%{transform:translateX(-3150px)}83.4%{transform:translateX(-3225px)}83.9%{transform:translateX(-3300px)}85.2%{transform:translateX(-3375px)}85.7%{transform:translateX(-3450px)}86.7%{transform:translateX(-3525px)}87.5%{transform:translateX(-3600px)}89.3%{transform:translateX(-3750px)}95.5%{transform:translateX(-3825px)}96.9%{transform:translateX(-3900px)}98%{transform:translateX(-3975px)}98.8%{transform:translateX(-4050px)}to{transform:translateX(-4125px)}}.a{fill:#282d35}.f,.g,.h,.i{fill:#b9c0cb;white-space:pre}.g,.h,.i{fill:#a8cc8c}.h,.i{fill:#71bef2}.i{fill:#e88388;font-weight:700}</style><g font-family="Monaco,Consolas,Menlo,'Bitstream Vera Sans Mono','Powerline Symbols',monospace" font-size="1.67"><defs><symbol id="1"><text y="1.67" class="f">Welcome</text><text x="8.016" y="1.67" class="f">to</text><text x="11.022" y="1.67" class="f">ne[sh]ie,</text><text x="21.042" y="1.67" class="f">the</text><text x="25.05" y="1.67" class="f">absurdly</text><text x="34.068" y="1.67" class="f">stupid</text><text x="41.082" y="1.67" class="f">shell!</text></symbol><symbol id="2"><text y="1.67" class="g">/tmp/demo</text><text x="10.02" y="1.67" class="h">$</text></symbol><symbol id="3"><text y="1.67" class="g">/tmp/demo</text><text x="10.02" y="1.67" class="h">$</text><text x="12.024" y="1.67" class="f">ls</text></symbol><symbol id="4"><text y="1.67" class="g">/tmp/demo</text><text x="10.02" y="1.67" class="h">$</text><text x="12.024" y="1.67" class="f">ls</text><text x="15.03" y="1.67" class="f">|</text></symbol><symbol id="5"><text y="1.67" class="g">/tmp/demo</text><text x="10.02" y="1.67" class="h">$</text><text x="12.024" y="1.67" class="f">ls</text><text x="15.03" y="1.67" class="f">|</text><text x="17.034" y="1.67" class="f">wc</text></symbol><symbol id="6"><text y="1.67" class="g">/tmp/demo</text><text x="10.02" y="1.67" class="h">$</text><text x="12.024" y="1.67" class="f">ls</text><text x="15.03" y="1.67" class="f">|</text><text x="17.034" y="1.67" class="f">wc</text><text x="20.04" y="1.67" class="f">-l</text></symbol><symbol id="7"><text y="1.67" class="f">8</text></symbol><symbol id="8"><text y="1.67" class="g">/tmp/demo</text><text x="10.02" y="1.67" class="h">$</text><text x="12.024" y="1.67" class="f">cd</text></symbol><symbol id="9"><text y="1.67" class="g">/tmp/demo</text><text x="10.02" y="1.67" class="h">$</text><text x="12.024" y="1.67" class="f">cd</text><text x="15.03" y="1.67" class="f">here</text></symbol><symbol id="10"><text y="1.67" class="g">/tmp/demo/here</text><text x="15.03" y="1.67" class="h">$</text><text x="17.034" y="1.67" class="f">true</text><text x="22.044" y="1.67" class="f">&amp;&amp;</text><text x="25.05" y="1.67" class="f">false</text><text x="31.062" y="1.67" class="f">||</text><text x="34.068" y="1.67" class="f">true</text><text x="39.078" y="1.67" class="f">&amp;&amp;</text><text x="42.084" y="1.67" class="f">false</text></symbol><symbol id="11"><text y="1.67" class="i">[1]</text><text x="4.008" y="1.67" class="g">/tmp/demo/here</text><text x="19.038" y="1.67" class="h">$</text><text x="21.042" y="1.67" class="f">whatever</text></symbol><symbol id="12"><text y="1.67" class="f">No</text><text x="3.006" y="1.67" class="f">such</text><text x="8.016" y="1.67" class="f">command</text><text x="16.032" y="1.67" class="f">or</text><text x="19.038" y="1.67" class="f">directory:</text><text x="30.06" y="1.67" class="f">whatever</text></symbol><symbol id="13"><text y="1.67" class="i">[127]</text><text x="6.012" y="1.67" class="g">/tmp/demo/here</text><text x="21.042" y="1.67" class="h">$</text><text x="23.046" y="1.67" class="f">../</text></symbol><symbol id="14"><text y="1.67" class="g">/tmp/demo</text><text x="10.02" y="1.67" class="h">$</text><text x="12.024" y="1.67" class="f">history</text></symbol><symbol id="15"><text y="1.67" class="f">ls</text><text x="3.006" y="1.67" class="f">|</text><text x="5.01" y="1.67" class="f">wc</text><text x="8.016" y="1.67" class="f">-l</text></symbol><symbol id="16"><text y="1.67" class="f">cd</text><text x="3.006" y="1.67" class="f">here</text></symbol><symbol id="17"><text y="1.67" class="f">true</text><text x="5.01" y="1.67" class="f">&amp;&amp;</text><text x="8.016" y="1.67" class="f">false</text><text x="14.028" y="1.67" class="f">||</text><text x="17.034" y="1.67" class="f">true</text><text x="22.044" y="1.67" class="f">&amp;&amp;</text><text x="25.05" y="1.67" class="f">false</text></symbol><symbol id="18"><text y="1.67" class="f">whatever</text></symbol><symbol id="19"><text y="1.67" class="f">../</text></symbol><symbol id="20"><text y="1.67" class="g">/tmp/demo</text><text x="10.02" y="1.67" class="h">$</text><text x="12.024" y="1.67" class="f">exit</text></symbol><symbol id="a"><path fill="transparent" d="M0 0h75v16H0z"/></symbol><symbol id="b"><path fill="#6f7683" d="M0 0h1.102v2.171H0z"/></symbol></defs><path class="a" d="M0 0h75v34.736H0z"/><g style="animation-duration:13.794563s;animation-iteration-count:infinite;animation-name:l;animation-timing-function:steps(1,end)"><svg width="4200"><svg><use xlink:href="#a"/><use xlink:href="#b" x="-.004"/></svg><svg x="75"><use xlink:href="#a"/><use xlink:href="#b" x="11.996" y="2.146"/><use xlink:href="#1"/><use xlink:href="#2" y="2.171"/></svg><svg x="150"><use xlink:href="#a"/><use xlink:href="#b" x="12.996" y="2.146"/><use xlink:href="#1"/><text y="3.841" class="g">/tmp/demo</text><text x="10.02" y="3.841" class="h">$</text><text x="12.024" y="3.841" class="f">l</text></svg><svg x="225"><use xlink:href="#a"/><use xlink:href="#b" x="13.996" y="2.146"/><use xlink:href="#1"/><use xlink:href="#3" y="2.171"/></svg><svg x="300"><use xlink:href="#a"/><use xlink:href="#b" x="14.996" y="2.146"/><use xlink:href="#1"/><use xlink:href="#3" y="2.171"/></svg><svg x="375"><use xlink:href="#a"/><use xlink:href="#b" x="15.996" y="2.146"/><use xlink:href="#1"/><use xlink:href="#4" y="2.171"/></svg><svg x="450"><use xlink:href="#a"/><use xlink:href="#b" x="16.996" y="2.146"/><use xlink:href="#1"/><use xlink:href="#4" y="2.171"/></svg><svg x="525"><use xlink:href="#a"/><use xlink:href="#b" x="17.996" y="2.146"/><use xlink:href="#1"/><text y="3.841" class="g">/tmp/demo</text><text x="10.02" y="3.841" class="h">$</text><text x="12.024" y="3.841" class="f">ls</text><text x="15.03" y="3.841" class="f">|</text><text x="17.034" y="3.841" class="f">w</text></svg><svg x="600"><use xlink:href="#a"/><use xlink:href="#b" x="18.996" y="2.146"/><use xlink:href="#1"/><use xlink:href="#5" y="2.171"/></svg><svg x="675"><use xlink:href="#a"/><use xlink:href="#b" x="19.996" y="2.146"/><use xlink:href="#1"/><use xlink:href="#5" y="2.171"/></svg><svg x="750"><use xlink:href="#a"/><use xlink:href="#b" x="20.996" y="2.146"/><use xlink:href="#1"/><text y="3.841" class="g">/tmp/demo</text><text x="10.02" y="3.841" class="h">$</text><text x="12.024" y="3.841" class="f">ls</text><text x="15.03" y="3.841" class="f">|</text><text x="17.034" y="3.841" class="f">wc</text><text x="20.04" y="3.841" class="f">-</text></svg><svg x="825"><use xlink:href="#a"/><use xlink:href="#b" x="21.996" y="2.146"/><use xlink:href="#1"/><use xlink:href="#6" y="2.171"/></svg><svg x="900"><use xlink:href="#a"/><use xlink:href="#b" x="-.004" y="4.317"/><use xlink:href="#1"/><use xlink:href="#6" y="2.171"/></svg><svg x="975"><use xlink:href="#a"/><use xlink:href="#b" x="-.004" y="6.488"/><use xlink:href="#1"/><use xlink:href="#6" y="2.171"/><use xlink:href="#7" y="4.342"/></svg><svg x="1050"><use xlink:href="#a"/><use xlink:href="#b" x="11.996" y="6.488"/><use xlink:href="#1"/><use xlink:href="#6" y="2.171"/><use xlink:href="#7" y="4.342"/><use xlink:href="#2" y="6.513"/></svg><svg x="1125"><use xlink:href="#a"/><use xlink:href="#b" x="12.996" y="6.488"/><use xlink:href="#1"/><use xlink:href="#6" y="2.171"/><use xlink:href="#7" y="4.342"/><text y="8.183" class="g">/tmp/demo</text><text x="10.02" y="8.183" class="h">$</text><text x="12.024" y="8.183" class="f">c</text></svg><svg x="1200"><use xlink:href="#a"/><use xlink:href="#b" x="13.996" y="6.488"/><use xlink:href="#1"/><use xlink:href="#6" y="2.171"/><use xlink:href="#7" y="4.342"/><use xlink:href="#8" y="6.513"/></svg><svg x="1275"><use xlink:href="#a"/><use xlink:href="#b" x="14.996" y="6.488"/><use xlink:href="#1"/><use xlink:href="#6" y="2.171"/><use xlink:href="#7" y="4.342"/><use xlink:href="#8" y="6.513"/></svg><svg x="1350"><use xlink:href="#a"/><use xlink:href="#b" x="15.996" y="6.488"/><use xlink:href="#1"/><use xlink:href="#6" y="2.171"/><use xlink:href="#7" y="4.342"/><text y="8.183" class="g">/tmp/demo</text><text x="10.02" y="8.183" class="h">$</text><text x="12.024" y="8.183" class="f">cd</text><text x="15.03" y="8.183" class="f">h</text></svg><svg x="1425"><use xlink:href="#a"/><use xlink:href="#b" x="16.996" y="6.488"/><use xlink:href="#1"/><use xlink:href="#6" y="2.171"/><use xlink:href="#7" y="4.342"/><text y="8.183" class="g">/tmp/demo</text><text x="10.02" y="8.183" class="h">$</text><text x="12.024" y="8.183" class="f">cd</text><text x="15.03" y="8.183" class="f">he</text></svg><svg x="1500"><use xlink:href="#a"/><use xlink:href="#b" x="17.996" y="6.488"/><use xlink:href="#1"/><use xlink:href="#6" y="2.171"/><use xlink:href="#7" y="4.342"/><text y="8.183" class="g">/tmp/demo</text><text x="10.02" y="8.183" class="h">$</text><text x="12.024" y="8.183" class="f">cd</text><text x="15.03" y="8.183" class="f">her</text></svg><svg x="1575"><use xlink:href="#a"/><use xlink:href="#b" x="18.996" y="6.488"/><use xlink:href="#1"/><use xlink:href="#6" y="2.171"/><use xlink:href="#7" y="4.342"/><use xlink:href="#9" y="6.513"/></svg><svg x="1650"><use xlink:href="#a"/><use xlink:href="#b" x="-.004" y="8.659"/><use xlink:href="#1"/><use xlink:href="#6" y="2.171"/><use xlink:href="#7" y="4.342"/><use xlink:href="#9" y="6.513"/></svg><svg x="1725"><use xlink:href="#a"/><use xlink:href="#b" x="16.996" y="8.659"/><use xlink:href="#1"/><use xlink:href="#6" y="2.171"/><use xlink:href="#7" y="4.342"/><use xlink:href="#9" y="6.513"/><text y="10.354" class="g">/tmp/demo/here</text><text x="15.03" y="10.354" class="h">$</text></svg><svg x="1800"><use xlink:href="#a"/><use xlink:href="#b" x="46.996" y="8.659"/><use xlink:href="#1"/><use xlink:href="#6" y="2.171"/><use xlink:href="#7" y="4.342"/><use xlink:href="#9" y="6.513"/><use xlink:href="#10" y="8.684"/></svg><svg x="1875"><use xlink:href="#a"/><use xlink:href="#b" x="-.004" y="10.83"/><use xlink:href="#1"/><use xlink:href="#6" y="2.171"/><use xlink:href="#7" y="4.342"/><use xlink:href="#9" y="6.513"/><use xlink:href="#10" y="8.684"/></svg><svg x="1950"><use xlink:href="#a"/><use xlink:href="#b" x="20.996" y="10.83"/><use xlink:href="#1"/><use xlink:href="#6" y="2.171"/><use xlink:href="#7" y="4.342"/><use xlink:href="#9" y="6.513"/><use xlink:href="#10" y="8.684"/><text y="12.525" class="i">[1]</text><text x="4.008" y="12.525" class="g">/tmp/demo/here</text><text x="19.038" y="12.525" class="h">$</text></svg><svg x="2025"><use xlink:href="#a"/><use xlink:href="#b" x="21.996" y="10.83"/><use xlink:href="#1"/><use xlink:href="#6" y="2.171"/><use xlink:href="#7" y="4.342"/><use xlink:href="#9" y="6.513"/><use xlink:href="#10" y="8.684"/><text y="12.525" class="i">[1]</text><text x="4.008" y="12.525" class="g">/tmp/demo/here</text><text x="19.038" y="12.525" class="h">$</text><text x="21.042" y="12.525" class="f">w</text></svg><svg x="2100"><use xlink:href="#a"/><use xlink:href="#b" x="22.996" y="10.83"/><use xlink:href="#1"/><use xlink:href="#6" y="2.171"/><use xlink:href="#7" y="4.342"/><use xlink:href="#9" y="6.513"/><use xlink:href="#10" y="8.684"/><text y="12.525" class="i">[1]</text><text x="4.008" y="12.525" class="g">/tmp/demo/here</text><text x="19.038" y="12.525" class="h">$</text><text x="21.042" y="12.525" class="f">wh</text></svg><svg x="2175"><use xlink:href="#a"/><use xlink:href="#b" x="23.996" y="10.83"/><use xlink:href="#1"/><use xlink:href="#6" y="2.171"/><use xlink:href="#7" y="4.342"/><use xlink:href="#9" y="6.513"/><use xlink:href="#10" y="8.684"/><text y="12.525" class="i">[1]</text><text x="4.008" y="12.525" class="g">/tmp/demo/here</text><text x="19.038" y="12.525" class="h">$</text><text x="21.042" y="12.525" class="f">wha</text></svg><svg x="2250"><use xlink:href="#a"/><use xlink:href="#b" x="24.996" y="10.83"/><use xlink:href="#1"/><use xlink:href="#6" y="2.171"/><use xlink:href="#7" y="4.342"/><use xlink:href="#9" y="6.513"/><use xlink:href="#10" y="8.684"/><text y="12.525" class="i">[1]</text><text x="4.008" y="12.525" class="g">/tmp/demo/here</text><text x="19.038" y="12.525" class="h">$</text><text x="21.042" y="12.525" class="f">what</text></svg><svg x="2325"><use xlink:href="#a"/><use xlink:href="#b" x="25.996" y="10.83"/><use xlink:href="#1"/><use xlink:href="#6" y="2.171"/><use xlink:href="#7" y="4.342"/><use xlink:href="#9" y="6.513"/><use xlink:href="#10" y="8.684"/><text y="12.525" class="i">[1]</text><text x="4.008" y="12.525" class="g">/tmp/demo/here</text><text x="19.038" y="12.525" class="h">$</text><text x="21.042" y="12.525" class="f">whate</text></svg><svg x="2400"><use xlink:href="#a"/><use xlink:href="#b" x="26.996" y="10.83"/><use xlink:href="#1"/><use xlink:href="#6" y="2.171"/><use xlink:href="#7" y="4.342"/><use xlink:href="#9" y="6.513"/><use xlink:href="#10" y="8.684"/><text y="12.525" class="i">[1]</text><text x="4.008" y="12.525" class="g">/tmp/demo/here</text><text x="19.038" y="12.525" class="h">$</text><text x="21.042" y="12.525" class="f">whatev</text></svg><svg x="2475"><use xlink:href="#a"/><use xlink:href="#b" x="27.996" y="10.83"/><use xlink:href="#1"/><use xlink:href="#6" y="2.171"/><use xlink:href="#7" y="4.342"/><use xlink:href="#9" y="6.513"/><use xlink:href="#10" y="8.684"/><text y="12.525" class="i">[1]</text><text x="4.008" y="12.525" class="g">/tmp/demo/here</text><text x="19.038" y="12.525" class="h">$</text><text x="21.042" y="12.525" class="f">whateve</text></svg><svg x="2550"><use xlink:href="#a"/><use xlink:href="#b" x="28.996" y="10.83"/><use xlink:href="#1"/><use xlink:href="#6" y="2.171"/><use xlink:href="#7" y="4.342"/><use xlink:href="#9" y="6.513"/><use xlink:href="#10" y="8.684"/><use xlink:href="#11" y="10.855"/></svg><svg x="2625"><use xlink:href="#a"/><use xlink:href="#b" x="-.004" y="13.001"/><use xlink:href="#1"/><use xlink:href="#6" y="2.171"/><use xlink:href="#7" y="4.342"/><use xlink:href="#9" y="6.513"/><use xlink:href="#10" y="8.684"/><use xlink:href="#11" y="10.855"/></svg><svg x="2700"><use xlink:href="#a"/><use xlink:href="#b" x="22.996" y="15.172"/><use xlink:href="#1"/><use xlink:href="#6" y="2.171"/><use xlink:href="#7" y="4.342"/><use xlink:href="#9" y="6.513"/><use xlink:href="#10" y="8.684"/><use xlink:href="#11" y="10.855"/><use xlink:href="#12" y="13.026"/><text y="16.867" class="i">[127]</text><text x="6.012" y="16.867" class="g">/tmp/demo/here</text><text x="21.042" y="16.867" class="h">$</text></svg><svg x="2775"><use xlink:href="#a"/><use xlink:href="#b" x="23.996" y="15.172"/><use xlink:href="#1"/><use xlink:href="#6" y="2.171"/><use xlink:href="#7" y="4.342"/><use xlink:href="#9" y="6.513"/><use xlink:href="#10" y="8.684"/><use xlink:href="#11" y="10.855"/><use xlink:href="#12" y="13.026"/><text y="16.867" class="i">[127]</text><text x="6.012" y="16.867" class="g">/tmp/demo/here</text><text x="21.042" y="16.867" class="h">$</text><text x="23.046" y="16.867" class="f">.</text></svg><svg x="2850"><use xlink:href="#a"/><use xlink:href="#b" x="24.996" y="15.172"/><use xlink:href="#1"/><use xlink:href="#6" y="2.171"/><use xlink:href="#7" y="4.342"/><use xlink:href="#9" y="6.513"/><use xlink:href="#10" y="8.684"/><use xlink:href="#11" y="10.855"/><use xlink:href="#12" y="13.026"/><text y="16.867" class="i">[127]</text><text x="6.012" y="16.867" class="g">/tmp/demo/here</text><text x="21.042" y="16.867" class="h">$</text><text x="23.046" y="16.867" class="f">..</text></svg><svg x="2925"><use xlink:href="#a"/><use xlink:href="#b" x="25.996" y="15.172"/><use xlink:href="#1"/><use xlink:href="#6" y="2.171"/><use xlink:href="#7" y="4.342"/><use xlink:href="#9" y="6.513"/><use xlink:href="#10" y="8.684"/><use xlink:href="#11" y="10.855"/><use xlink:href="#12" y="13.026"/><use xlink:href="#13" y="15.197"/></svg><svg x="3000"><use xlink:href="#a"/><use xlink:href="#b" x="-.004" y="17.343"/><use xlink:href="#1"/><use xlink:href="#6" y="2.171"/><use xlink:href="#7" y="4.342"/><use xlink:href="#9" y="6.513"/><use xlink:href="#10" y="8.684"/><use xlink:href="#11" y="10.855"/><use xlink:href="#12" y="13.026"/><use xlink:href="#13" y="15.197"/></svg><svg x="3075"><use xlink:href="#a"/><use xlink:href="#b" x="11.996" y="17.343"/><use xlink:href="#1"/><use xlink:href="#6" y="2.171"/><use xlink:href="#7" y="4.342"/><use xlink:href="#9" y="6.513"/><use xlink:href="#10" y="8.684"/><use xlink:href="#11" y="10.855"/><use xlink:href="#12" y="13.026"/><use xlink:href="#13" y="15.197"/><use xlink:href="#2" y="17.368"/></svg><svg x="3150"><use xlink:href="#a"/><use xlink:href="#b" x="12.996" y="17.343"/><use xlink:href="#1"/><use xlink:href="#6" y="2.171"/><use xlink:href="#7" y="4.342"/><use xlink:href="#9" y="6.513"/><use xlink:href="#10" y="8.684"/><use xlink:href="#11" y="10.855"/><use xlink:href="#12" y="13.026"/><use xlink:href="#13" y="15.197"/><text y="19.038" class="g">/tmp/demo</text><text x="10.02" y="19.038" class="h">$</text><text x="12.024" y="19.038" class="f">h</text></svg><svg x="3225"><use xlink:href="#a"/><use xlink:href="#b" x="13.996" y="17.343"/><use xlink:href="#1"/><use xlink:href="#6" y="2.171"/><use xlink:href="#7" y="4.342"/><use xlink:href="#9" y="6.513"/><use xlink:href="#10" y="8.684"/><use xlink:href="#11" y="10.855"/><use xlink:href="#12" y="13.026"/><use xlink:href="#13" y="15.197"/><text y="19.038" class="g">/tmp/demo</text><text x="10.02" y="19.038" class="h">$</text><text x="12.024" y="19.038" class="f">hi</text></svg><svg x="3300"><use xlink:href="#a"/><use xlink:href="#b" x="14.996" y="17.343"/><use xlink:href="#1"/><use xlink:href="#6" y="2.171"/><use xlink:href="#7" y="4.342"/><use xlink:href="#9" y="6.513"/><use xlink:href="#10" y="8.684"/><use xlink:href="#11" y="10.855"/><use xlink:href="#12" y="13.026"/><use xlink:href="#13" y="15.197"/><text y="19.038" class="g">/tmp/demo</text><text x="10.02" y="19.038" class="h">$</text><text x="12.024" y="19.038" class="f">his</text></svg><svg x="3375"><use xlink:href="#a"/><use xlink:href="#b" x="15.996" y="17.343"/><use xlink:href="#1"/><use xlink:href="#6" y="2.171"/><use xlink:href="#7" y="4.342"/><use xlink:href="#9" y="6.513"/><use xlink:href="#10" y="8.684"/><use xlink:href="#11" y="10.855"/><use xlink:href="#12" y="13.026"/><use xlink:href="#13" y="15.197"/><text y="19.038" class="g">/tmp/demo</text><text x="10.02" y="19.038" class="h">$</text><text x="12.024" y="19.038" class="f">hist</text></svg><svg x="3450"><use xlink:href="#a"/><use xlink:href="#b" x="16.996" y="17.343"/><use xlink:href="#1"/><use xlink:href="#6" y="2.171"/><use xlink:href="#7" y="4.342"/><use xlink:href="#9" y="6.513"/><use xlink:href="#10" y="8.684"/><use xlink:href="#11" y="10.855"/><use xlink:href="#12" y="13.026"/><use xlink:href="#13" y="15.197"/><text y="19.038" class="g">/tmp/demo</text><text x="10.02" y="19.038" class="h">$</text><text x="12.024" y="19.038" class="f">histo</text></svg><svg x="3525"><use xlink:href="#a"/><use xlink:href="#b" x="17.996" y="17.343"/><use xlink:href="#1"/><use xlink:href="#6" y="2.171"/><use xlink:href="#7" y="4.342"/><use xlink:href="#9" y="6.513"/><use xlink:href="#10" y="8.684"/><use xlink:href="#11" y="10.855"/><use xlink:href="#12" y="13.026"/><use xlink:href="#13" y="15.197"/><text y="19.038" class="g">/tmp/demo</text><text x="10.02" y="19.038" class="h">$</text><text x="12.024" y="19.038" class="f">histor</text></svg><svg x="3600"><use xlink:href="#a"/><use xlink:href="#b" x="18.996" y="17.343"/><use xlink:href="#1"/><use xlink:href="#6" y="2.171"/><use xlink:href="#7" y="4.342"/><use xlink:href="#9" y="6.513"/><use xlink:href="#10" y="8.684"/><use xlink:href="#11" y="10.855"/><use xlink:href="#12" y="13.026"/><use xlink:href="#13" y="15.197"/><use xlink:href="#14" y="17.368"/></svg><svg x="3675"><use xlink:href="#a"/><use xlink:href="#b" x="-.004" y="19.514"/><use xlink:href="#1"/><use xlink:href="#6" y="2.171"/><use xlink:href="#7" y="4.342"/><use xlink:href="#9" y="6.513"/><use xlink:href="#10" y="8.684"/><use xlink:href="#11" y="10.855"/><use xlink:href="#12" y="13.026"/><use xlink:href="#13" y="15.197"/><use xlink:href="#14" y="17.368"/></svg><svg x="3750"><use xlink:href="#a"/><use xlink:href="#b" x="11.996" y="30.369"/><use xlink:href="#1"/><use xlink:href="#6" y="2.171"/><use xlink:href="#7" y="4.342"/><use xlink:href="#9" y="6.513"/><use xlink:href="#10" y="8.684"/><use xlink:href="#11" y="10.855"/><use xlink:href="#12" y="13.026"/><use xlink:href="#13" y="15.197"/><use xlink:href="#14" y="17.368"/><use xlink:href="#15" y="19.539"/><use xlink:href="#16" y="21.71"/><use xlink:href="#17" y="23.881"/><use xlink:href="#18" y="26.052"/><use xlink:href="#19" y="28.223"/><use xlink:href="#2" y="30.394"/></svg><svg x="3825"><use xlink:href="#a"/><use xlink:href="#b" x="12.996" y="30.369"/><use xlink:href="#1"/><use xlink:href="#6" y="2.171"/><use xlink:href="#7" y="4.342"/><use xlink:href="#9" y="6.513"/><use xlink:href="#10" y="8.684"/><use xlink:href="#11" y="10.855"/><use xlink:href="#12" y="13.026"/><use xlink:href="#13" y="15.197"/><use xlink:href="#14" y="17.368"/><use xlink:href="#15" y="19.539"/><use xlink:href="#16" y="21.71"/><use xlink:href="#17" y="23.881"/><use xlink:href="#18" y="26.052"/><use xlink:href="#19" y="28.223"/><text y="32.064" class="g">/tmp/demo</text><text x="10.02" y="32.064" class="h">$</text><text x="12.024" y="32.064" class="f">e</text></svg><svg x="3900"><use xlink:href="#a"/><use xlink:href="#b" x="13.996" y="30.369"/><use xlink:href="#1"/><use xlink:href="#6" y="2.171"/><use xlink:href="#7" y="4.342"/><use xlink:href="#9" y="6.513"/><use xlink:href="#10" y="8.684"/><use xlink:href="#11" y="10.855"/><use xlink:href="#12" y="13.026"/><use xlink:href="#13" y="15.197"/><use xlink:href="#14" y="17.368"/><use xlink:href="#15" y="19.539"/><use xlink:href="#16" y="21.71"/><use xlink:href="#17" y="23.881"/><use xlink:href="#18" y="26.052"/><use xlink:href="#19" y="28.223"/><text y="32.064" class="g">/tmp/demo</text><text x="10.02" y="32.064" class="h">$</text><text x="12.024" y="32.064" class="f">ex</text></svg><svg x="3975"><use xlink:href="#a"/><use xlink:href="#b" x="14.996" y="30.369"/><use xlink:href="#1"/><use xlink:href="#6" y="2.171"/><use xlink:href="#7" y="4.342"/><use xlink:href="#9" y="6.513"/><use xlink:href="#10" y="8.684"/><use xlink:href="#11" y="10.855"/><use xlink:href="#12" y="13.026"/><use xlink:href="#13" y="15.197"/><use xlink:href="#14" y="17.368"/><use xlink:href="#15" y="19.539"/><use xlink:href="#16" y="21.71"/><use xlink:href="#17" y="23.881"/><use xlink:href="#18" y="26.052"/><use xlink:href="#19" y="28.223"/><text y="32.064" class="g">/tmp/demo</text><text x="10.02" y="32.064" class="h">$</text><text x="12.024" y="32.064" class="f">exi</text></svg><svg x="4050"><use xlink:href="#a"/><use xlink:href="#b" x="15.996" y="30.369"/><use xlink:href="#1"/><use xlink:href="#6" y="2.171"/><use xlink:href="#7" y="4.342"/><use xlink:href="#9" y="6.513"/><use xlink:href="#10" y="8.684"/><use xlink:href="#11" y="10.855"/><use xlink:href="#12" y="13.026"/><use xlink:href="#13" y="15.197"/><use xlink:href="#14" y="17.368"/><use xlink:href="#15" y="19.539"/><use xlink:href="#16" y="21.71"/><use xlink:href="#17" y="23.881"/><use xlink:href="#18" y="26.052"/><use xlink:href="#19" y="28.223"/><use xlink:href="#20" y="30.394"/></svg><svg x="4125"><use xlink:href="#a"/><use xlink:href="#b" x="-.004" y="32.54"/><use xlink:href="#1"/><use xlink:href="#6" y="2.171"/><use xlink:href="#7" y="4.342"/><use xlink:href="#9" y="6.513"/><use xlink:href="#10" y="8.684"/><use xlink:href="#11" y="10.855"/><use xlink:href="#12" y="13.026"/><use xlink:href="#13" y="15.197"/><use xlink:href="#14" y="17.368"/><use xlink:href="#15" y="19.539"/><use xlink:href="#16" y="21.71"/><use xlink:href="#17" y="23.881"/><use xlink:href="#18" y="26.052"/><use xlink:href="#19" y="28.223"/><use xlink:href="#20" y="30.394"/></svg></svg></g></g></svg></svg>